<?xml version="1.0" encoding="UTF-8"?>
<svg width="24px" height="24px" viewBox="0 0 24 24" version="1.1" xmlns="http://www.w3.org/2000/svg" xmlns:xlink="http://www.w3.org/1999/xlink">
    <!-- Generator: Sketch 43.1 (39012) - http://www.bohemiancoding.com/sketch -->
    <title>facebook</title>
    <desc>Created with Sketch.</desc>
    <defs></defs>
    <g id="Home" stroke="none" stroke-width="1" fill="none" fill-rule="evenodd">
        <g transform="translate(-614.000000, -6212.000000)" id="Group-4" fill="#526173">
            <g transform="translate(549.000000, 6212.000000)">
                <path d="M84.5000232,-2.62260437e-05 L69.5000054,-2.62260437e-05 C67.0156274,-2.62260437e-05 65,2.01560118 65,4.49997914 L65,19.499997 C65,21.984375 67.0156274,24.0000024 69.5000054,24.0000024 L77.8125153,24.0000024 L77.8125153,14.7031163 L74.6875115,14.7031163 L74.6875115,11.078112 L77.8125153,11.078112 L77.8125153,8.40623379 C77.8125153,5.31248011 79.7187675,3.6249781 82.4843958,3.6249781 C83.7968974,3.6249781 84.9375238,3.71872821 85.2656492,3.76560326 L85.2656492,6.99998212 L83.3593969,7.01560714 C81.8437701,7.01560714 81.5625197,7.71873298 81.5625197,8.76560922 L81.5625197,11.078112 L85.140649,11.078112 L84.6718985,14.7031163 L81.5625197,14.7031163 L81.5625197,24.0000024 L84.5000232,24.0000024 C86.9844012,24.0000024 89.0000286,21.984375 89.0000286,19.499997 L89.0000286,4.49997914 C89.0000286,2.01560118 86.9844012,-2.62260437e-05 84.5000232,-2.62260437e-05 Z" id="facebook"></path>
            </g>
        </g>
    </g>
</svg>
