<?xml version="1.0" encoding="UTF-8"?>
<svg width="24px" height="24px" viewBox="0 0 24 24" version="1.1" xmlns="http://www.w3.org/2000/svg" xmlns:xlink="http://www.w3.org/1999/xlink">
    <!-- Generator: Sketch 43.1 (39012) - http://www.bohemiancoding.com/sketch -->
    <title>instagram</title>
    <desc>Created with Sketch.</desc>
    <defs></defs>
    <g id="Home" stroke="none" stroke-width="1" fill="none" fill-rule="evenodd">
        <g transform="translate(-743.000000, -6212.000000)" id="Group-4" fill="#526173">
            <g transform="translate(549.000000, 6212.000000)">
                <path d="M215.281275,20.281248 L215.281275,10.1562359 L213.171898,10.1562359 C213.375023,10.7968616 213.484398,11.4999875 213.484398,12.2031133 C213.484398,16.2031181 210.140644,19.4374969 206.015639,19.4374969 C201.906259,19.4374969 198.562505,16.2031181 198.562505,12.2031133 C198.562505,11.4999875 198.671881,10.7968616 198.875006,10.1562359 L196.671878,10.1562359 L196.671878,20.281248 C196.671878,20.8124986 197.093754,21.2343741 197.625004,21.2343741 L214.328149,21.2343741 C214.8594,21.2343741 215.281275,20.8124986 215.281275,20.281248 Z M210.84377,11.953113 C210.84377,9.37498495 208.687518,7.28123245 206.015639,7.28123245 C203.359386,7.28123245 201.203134,9.37498495 201.203134,11.953113 C201.203134,14.5312411 203.359386,16.6249936 206.015639,16.6249936 C208.687518,16.6249936 210.84377,14.5312411 210.84377,11.953113 Z M215.281275,6.32810632 L215.281275,3.74997824 C215.281275,3.15622754 214.7969,2.67185196 214.203149,2.67185196 L211.484396,2.67185196 C210.890645,2.67185196 210.40627,3.15622754 210.40627,3.74997824 L210.40627,6.32810632 C210.40627,6.92185703 210.890645,7.4062326 211.484396,7.4062326 L214.203149,7.4062326 C214.7969,7.4062326 215.281275,6.92185703 215.281275,6.32810632 Z M218.000029,3.07810244 L218.000029,20.9218737 C218.000029,22.6093757 216.609402,24.0000024 214.9219,24.0000024 L197.078129,24.0000024 C195.390627,24.0000024 194,22.6093757 194,20.9218737 L194,3.07810244 C194,1.39060043 195.390627,-2.62260437e-05 197.078129,-2.62260437e-05 L214.9219,-2.62260437e-05 C216.609402,-2.62260437e-05 218.000029,1.39060043 218.000029,3.07810244 Z" id="instagram"></path>
            </g>
        </g>
    </g>
</svg>