<?xml version="1.0" encoding="UTF-8"?>
<svg width="24px" height="24px" viewBox="0 0 24 24" version="1.1" xmlns="http://www.w3.org/2000/svg" xmlns:xlink="http://www.w3.org/1999/xlink">
    <!-- Generator: Sketch 43.1 (39012) - http://www.bohemiancoding.com/sketch -->
    <title>linkedin</title>
    <desc>Created with Sketch.</desc>
    <defs></defs>
    <g id="Home" stroke="none" stroke-width="1" fill="none" fill-rule="evenodd">
        <g transform="translate(-873.000000, -6212.000000)" id="Group-4" fill="#526173">
            <g transform="translate(549.000000, 6212.000000)">
                <path d="M327.703129,20.0937477 L331.312509,20.0937477 L331.312509,9.2499848 L327.703129,9.2499848 L327.703129,20.0937477 Z M331.546884,5.90623081 C331.531259,4.84372955 330.765633,4.03122858 329.531257,4.03122858 C328.29688,4.03122858 327.484379,4.84372955 327.484379,5.90623081 C327.484379,6.93748204 328.26563,7.78123305 329.484382,7.78123305 L329.500007,7.78123305 C330.765633,7.78123305 331.546884,6.93748204 331.546884,5.90623081 Z M336.906265,10.7785617 L336.906265,10.8281117 L336.875015,10.8281117 C336.885244,10.8117464 336.895658,10.7952249 336.906265,10.7785617 L336.906265,10.7785617 Z M336.906265,10.7785617 L336.906265,9.2499848 L333.296886,9.2499848 C333.296886,9.2499848 333.343761,10.265611 333.296886,20.0937477 L336.906265,20.0937477 L336.906265,14.0312405 C336.906265,13.7187401 336.92189,13.3906147 337.015641,13.1562395 C337.281266,12.5156137 337.875017,11.8437379 338.875018,11.8437379 C340.171894,11.8437379 340.68752,12.8281141 340.68752,14.2968658 L340.68752,20.0937477 L344.296899,20.0937477 L344.296899,13.8749903 C344.296899,10.5468613 342.515647,8.9999845 340.140644,8.9999845 C338.245419,8.9999845 337.381783,10.0315739 336.906265,10.7785617 L336.906265,10.7785617 Z M348.000029,4.49997914 L348.000029,19.499997 C348.000029,21.984375 345.984401,24.0000024 343.500023,24.0000024 L328.500005,24.0000024 C326.015627,24.0000024 324,21.984375 324,19.499997 L324,4.49997914 C324,2.01560118 326.015627,-2.62260437e-05 328.500005,-2.62260437e-05 L343.500023,-2.62260437e-05 C345.984401,-2.62260437e-05 348.000029,2.01560118 348.000029,4.49997914 Z" id="linkedin"></path>
            </g>
        </g>
    </g>
</svg>