<?xml version="1.0" encoding="UTF-8"?>
<svg width="18px" height="14px" viewBox="0 0 18 14" version="1.1" xmlns="http://www.w3.org/2000/svg" xmlns:xlink="http://www.w3.org/1999/xlink">
    <!-- Generator: Sketch 43.1 (39012) - http://www.bohemiancoding.com/sketch -->
    <title>envelope - simple-line-icons</title>
    <desc>Created with Sketch.</desc>
    <defs></defs>
    <g id="Home" stroke="none" stroke-width="1" fill="none" fill-rule="evenodd">
        <g transform="translate(-604.000000, -5962.000000)" id="envelope---simple-line-icons" fill="#FFFFFF">
            <path d="M621.982422,5964.20312 C621.994141,5964.22656 622,5964.25 622,5964.27344 L622,5973.34375 C622,5973.8125 621.882814,5974.25781 621.648438,5974.67969 C621.414061,5975.10156 621.062502,5975.3125 620.59375,5975.3125 L605.96875,5975.3125 C605.499998,5975.3125 605.05469,5975.10156 604.632812,5974.67969 C604.210935,5974.25781 604,5973.8125 604,5973.34375 L604,5964.27344 C604,5964.25 604.005859,5964.22656 604.017578,5964.20312 C603.994141,5964.12109 603.994141,5964.04199 604.017578,5963.96582 C604.041016,5963.88965 604.082031,5963.81641 604.140625,5963.74609 C604.152344,5963.73437 604.164062,5963.71973 604.175781,5963.70215 C604.1875,5963.68457 604.205078,5963.66992 604.228516,5963.6582 C604.404298,5963.42383 604.653319,5963.24512 604.975586,5963.12207 C605.297853,5962.99902 605.628905,5962.9375 605.96875,5962.9375 L620.59375,5962.9375 C620.968752,5962.9375 621.270507,5963.0166 621.499023,5963.1748 C621.72754,5963.33301 621.876953,5963.57031 621.947266,5963.88672 C621.970703,5963.93359 621.985352,5963.9834 621.991211,5964.03613 C621.99707,5964.08887 621.994141,5964.14453 621.982422,5964.20312 Z M605.705078,5964.0625 C605.611328,5964.0625 605.517579,5964.06836 605.423828,5964.08008 L613,5970.12695 L620.59375,5964.0625 L605.705078,5964.0625 Z M620.59375,5974.1875 C620.746095,5974.1875 620.831055,5974.08496 620.848633,5973.87988 C620.866211,5973.6748 620.875,5973.49609 620.875,5973.34375 L620.875,5965.29297 L613.369141,5971.28711 C613.310547,5971.33398 613.251953,5971.36914 613.193359,5971.39258 C613.134765,5971.41602 613.070313,5971.42773 613,5971.42773 C612.929687,5971.42773 612.865235,5971.41602 612.806641,5971.39258 C612.748047,5971.36914 612.689453,5971.33398 612.630859,5971.28711 L605.125,5965.29297 L605.125,5973.34375 C605.125,5973.49609 605.227538,5973.6748 605.432617,5973.87988 C605.637696,5974.08496 605.816405,5974.1875 605.96875,5974.1875 L620.59375,5974.1875 Z"></path>
        </g>
    </g>
</svg>