<?xml version="1.0" encoding="UTF-8"?>
<svg width="13px" height="16px" viewBox="0 0 13 16" version="1.1" xmlns="http://www.w3.org/2000/svg" xmlns:xlink="http://www.w3.org/1999/xlink">
    <!-- Generator: Sketch 43.1 (39012) - http://www.bohemiancoding.com/sketch -->
    <title>Location-pin - simple-line-icons Copy</title>
    <desc>Created with Sketch.</desc>
    <defs></defs>
    <g id="Home" stroke="none" stroke-width="1" fill="none" fill-rule="evenodd">
        <g transform="translate(-569.000000, -4109.000000)" id="Location-pin---simple-line-icons-Copy" fill="#A3AFBF">
            <path d="M575.558594,4109.9375 C576.437504,4109.9375 577.223629,4110.08887 577.916992,4110.3916 C578.610355,4110.69434 579.193845,4111.10693 579.66748,4111.62939 C580.141116,4112.15186 580.50244,4112.75976 580.751465,4113.45312 C581.00049,4114.14649 581.125,4114.8789 581.125,4115.65039 C581.125,4116.43164 580.971193,4117.22998 580.663574,4118.04541 C580.355955,4118.86084 579.967776,4119.66162 579.499023,4120.44775 C579.030271,4121.23389 578.522464,4121.97851 577.975586,4122.68164 C577.428708,4123.38477 576.916018,4124.00976 576.4375,4124.55664 C576.4375,4124.56641 576.364259,4124.63232 576.217773,4124.75439 C576.071288,4124.87647 575.900392,4124.9375 575.705078,4124.9375 L575.661133,4124.9375 C575.456054,4124.9375 575.282716,4124.87647 575.141113,4124.75439 C574.999511,4124.63232 574.928711,4124.56641 574.928711,4124.55664 C574.420896,4123.9707 573.871585,4123.33106 573.280762,4122.6377 C572.689938,4121.94433 572.143069,4121.21436 571.640137,4120.44775 C571.137205,4119.68115 570.717287,4118.89258 570.380371,4118.08203 C570.043455,4117.27148 569.875,4116.46094 569.875,4115.65039 C569.875,4114.8789 570.026366,4114.14649 570.329102,4113.45312 C570.631837,4112.75976 571.04199,4112.15186 571.55957,4111.62939 C572.077151,4111.10693 572.680172,4110.69434 573.368652,4110.3916 C574.057132,4110.08887 574.787106,4109.9375 575.558594,4109.9375 Z M575.734375,4123.92676 C576.476566,4123.07714 577.125974,4122.26661 577.682617,4121.49512 C578.239261,4120.72363 578.703123,4119.99366 579.074219,4119.30518 C579.445314,4118.6167 579.723632,4117.96729 579.90918,4117.35693 C580.094727,4116.74658 580.1875,4116.17774 580.1875,4115.65039 C580.1875,4115.05468 580.097169,4114.47119 579.916504,4113.8999 C579.735839,4113.32861 579.45508,4112.81836 579.074219,4112.36914 C578.693357,4111.91992 578.212405,4111.5586 577.631348,4111.28516 C577.05029,4111.01172 576.359379,4110.875 575.558594,4110.875 C574.914059,4110.875 574.303714,4111.00195 573.727539,4111.25586 C573.151364,4111.50977 572.64844,4111.854 572.21875,4112.28857 C571.78906,4112.72315 571.447267,4113.23095 571.193359,4113.81201 C570.939452,4114.39307 570.8125,4115.00586 570.8125,4115.65039 C570.8125,4116.34375 570.958983,4117.04687 571.251953,4117.75977 C571.544923,4118.47266 571.916013,4119.17334 572.365234,4119.86182 C572.814455,4120.5503 573.307615,4121.21435 573.844727,4121.854 C574.381839,4122.49366 574.889646,4123.09179 575.368164,4123.64844 L575.617188,4123.92676 L575.675781,4123.98535 C575.685547,4123.97559 575.697754,4123.96582 575.712402,4123.95605 C575.727051,4123.94629 575.734375,4123.93652 575.734375,4123.92676 Z M575.514648,4112.76465 C576.295902,4112.76465 576.959958,4113.04052 577.506836,4113.59229 C578.053714,4114.14405 578.327148,4114.80566 578.327148,4115.57715 C578.327148,4116.3584 578.053714,4117.02246 577.506836,4117.56934 C576.959958,4118.11621 576.295902,4118.38965 575.514648,4118.38965 C574.74316,4118.38965 574.081546,4118.11621 573.529785,4117.56934 C572.978025,4117.02246 572.702148,4116.3584 572.702148,4115.57715 C572.702148,4114.80566 572.978025,4114.14405 573.529785,4113.59229 C574.081546,4113.04052 574.74316,4112.76465 575.514648,4112.76465 Z M575.514648,4117.45215 C576.032229,4117.45215 576.471678,4117.2666 576.833008,4116.89551 C577.194338,4116.52441 577.375,4116.08008 577.375,4115.5625 C577.375,4115.04492 577.191896,4114.60303 576.825684,4114.23682 C576.459471,4113.8706 576.017581,4113.6875 575.5,4113.6875 C574.982419,4113.6875 574.540529,4113.8706 574.174316,4114.23682 C573.808104,4114.60303 573.625,4115.04492 573.625,4115.5625 C573.625,4116.08008 573.810545,4116.52441 574.181641,4116.89551 C574.552736,4117.2666 574.997068,4117.45215 575.514648,4117.45215 Z"></path>
        </g>
    </g>
</svg>