<?xml version="1.0" encoding="UTF-8"?>
<svg width="26px" height="20px" viewBox="0 0 26 20" version="1.1" xmlns="http://www.w3.org/2000/svg" xmlns:xlink="http://www.w3.org/1999/xlink">
    <!-- Generator: Sketch 43.1 (39012) - http://www.bohemiancoding.com/sketch -->
    <title>twitter</title>
    <desc>Created with Sketch.</desc>
    <defs></defs>
    <g id="Home" stroke="none" stroke-width="1" fill="none" fill-rule="evenodd">
        <g transform="translate(-679.000000, -6214.000000)" id="Group-4" fill="#526173">
            <g transform="translate(549.000000, 6212.000000)">
                <path d="M155.31253,4.37497899 C154.406279,4.76560446 153.421903,5.04685479 152.406277,5.15622992 C153.453153,4.53122918 154.250029,3.546853 154.625029,2.37497661 C153.656278,2.95310229 152.562527,3.3749778 151.421901,3.59372806 C150.500024,2.60935188 149.187523,1.99997616 147.734396,1.99997616 C144.937518,1.99997616 142.687515,4.26560386 142.687515,7.04685717 C142.687515,7.43748264 142.73439,7.82810811 142.812515,8.20310855 C138.62501,7.98435829 134.890631,5.98435591 132.406253,2.92185226 C131.968752,3.67185315 131.718752,4.53122918 131.718752,5.46873029 C131.718752,7.21873238 132.609378,8.76560922 133.968755,9.6718603 C133.140629,9.64061027 132.359378,9.40623499 131.687502,9.03123454 L131.687502,9.09373461 C131.687502,11.5468625 133.421879,13.578115 135.734382,14.0468655 C135.312506,14.1562406 134.859381,14.2187407 134.406255,14.2187407 C134.07813,14.2187407 133.765629,14.1874907 133.453129,14.1406156 C134.093755,16.140618 135.953132,17.5937447 138.171885,17.6406198 C136.437508,18.9999964 134.26563,19.7968724 131.906252,19.7968724 C131.484377,19.7968724 131.093751,19.7812474 130.687501,19.7343723 C132.921878,21.171874 135.578132,22 138.43751,22 C147.718771,22 152.796902,14.3124908 152.796902,7.64060788 C152.796902,7.42185762 152.796902,7.20310736 152.781277,6.9843571 C153.765653,6.26560624 154.625029,5.37498018 155.31253,4.37497899 Z" id="twitter"></path>
            </g>
        </g>
    </g>
</svg>