<?xml version="1.0" encoding="UTF-8"?>
<svg width="28px" height="20px" viewBox="0 0 28 20" version="1.1" xmlns="http://www.w3.org/2000/svg" xmlns:xlink="http://www.w3.org/1999/xlink">
    <!-- Generator: Sketch 43.1 (39012) - http://www.bohemiancoding.com/sketch -->
    <title>youtube</title>
    <desc>Created with Sketch.</desc>
    <defs></defs>
    <g id="Home" stroke="none" stroke-width="1" fill="none" fill-rule="evenodd">
        <g transform="translate(-549.000000, -6214.000000)" id="Group-4" fill="#526173">
            <g transform="translate(549.000000, 6212.000000)">
                <path d="M20.0000238,11.9999881 C20.0000238,11.6562377 19.8281486,11.3281123 19.5312733,11.1562371 L11.5312637,6.15623111 C11.2187634,5.95310587 10.8281379,5.95310587 10.5156375,6.12498108 C10.2031372,6.29685628 10.0000119,6.64060669 10.0000119,6.99998212 L10.0000119,16.999994 C10.0000119,17.3593695 10.2031372,17.7031199 10.5156375,17.8749951 C10.6718877,17.9531202 10.8281379,17.9999952 11.0000131,17.9999952 C11.1875133,17.9999952 11.3750136,17.9531202 11.5312637,17.843745 L19.5312733,12.8437391 C19.8281486,12.6718639 20.0000238,12.3437385 20.0000238,11.9999881 Z M28.0000334,11.9999881 C28.0000334,14.2343657 28.0000334,16.6093686 27.5000328,18.7812462 C27.1719074,20.312498 25.9531559,21.4374993 24.4844042,21.6093745 C21.0156501,22 17.5000209,22 14.0000167,22 C10.5000125,22 6.98438333,22 3.51562919,21.6093745 C2.04687744,21.4374993 0.828125987,20.312498 0.484375577,18.7812462 C0,16.6093686 0,14.2343657 0,11.9999881 C0,9.76561042 0,7.39060758 0.500000596,5.21873 C0.843751006,3.68747817 2.04687744,2.56247683 3.51562919,2.39060162 C6.98438333,1.99997616 10.5000125,1.99997616 14.0000167,1.99997616 C17.5000209,1.99997616 21.0156501,1.99997616 24.4844042,2.39060162 C25.9531559,2.56247683 27.1719074,3.68747817 27.5156578,5.21873 C28.0000334,7.39060758 28.0000334,9.76561042 28.0000334,11.9999881 Z" id="youtube"></path>
            </g>
        </g>
    </g>
</svg>